<svg width="100" height="100" viewBox="0 0 100 100" fill="none" xmlns="http://www.w3.org/2000/svg">
<path fill-rule="evenodd" clip-rule="evenodd" d="M74.9999 58.3334H24.9999V47.9167C24.9999 44.4667 22.1999 41.6667 18.7499 41.6667H14.5833C11.1333 41.6667 8.33325 44.4667 8.33325 47.9167V66.6667C8.33325 71.2709 12.0624 75.0001 16.6666 75.0001H83.3332C87.9374 75.0001 91.6666 71.2709 91.6666 66.6667V47.9167C91.6666 44.4667 88.8666 41.6667 85.4166 41.6667H81.2499C77.7999 41.6667 74.9999 44.4667 74.9999 47.9167V58.3334Z" stroke="black" stroke-linecap="round" stroke-linejoin="round"/>
<path d="M20.8333 75V83.3333" stroke="black" stroke-linecap="round" stroke-linejoin="round"/>
<path d="M79.1666 75V83.3333" stroke="black" stroke-linecap="round" stroke-linejoin="round"/>
<path d="M16.6667 41.6667V33.3334C16.6667 26.4292 22.2626 20.8334 29.1667 20.8334H70.8334C77.7376 20.8334 83.3334 26.4292 83.3334 33.3334V41.6667" stroke="black" stroke-linecap="round" stroke-linejoin="round"/>
</svg>
